<?xml version="1.0" encoding="utf-8"?>
<svg viewBox="34.281 80 512 512" xmlns="http://www.w3.org/2000/svg">
  <g transform="matrix(2.201135, 0, 0, 2.179525, -42.608974, 61.679134)" style="">
    <title>stk</title>
    <path d="M 200 97.825 C 203.564 90.044 221.363 95.076 220 97.825 L 220 140 L 200 140 L 200 97.825 Z" style="stroke: rgb(0, 0, 0); fill: rgb(130, 130, 130);">
      <title>stkb</title>
    </path>
    <path d="M 160 91.435 C 163.564 83.654 181.363 88.686 180 91.435 L 180 133.61 L 160 133.61 L 160 91.435 Z" style="stroke: rgb(0, 0, 0); fill: rgb(130, 130, 130);">
      <title>stkm</title>
    </path>
    <path d="M 120 84.153 C 123.564 76.372 141.363 81.404 140 84.153 L 140 126.328 L 120 126.328 L 120 84.153 Z" style="stroke: rgb(0, 0, 0); fill: rgb(130, 130, 130);">
      <title>stkf</title>
    </path>
  </g>
  <g transform="matrix(2.201135, 0, 0, 2.179525, -42.608974, 61.679134)" style="">
    <title>top</title>
    <path d="M 120 120 L 240 140 L 240 160 L 120 149.917 L 120 120 Z" style="stroke: rgb(0, 0, 0); fill: rgb(194, 137, 137);"/>
    <path d="M 67.953 125.777 L 119.813 120.093 L 119.813 149.811 L 68.079 146.706 L 67.953 125.777 Z" style="stroke: rgb(0, 0, 0); fill: rgb(194, 137, 137);"/>
  </g>
  <g transform="matrix(2.201135, 0, 0, 2.179525, -42.608974, 61.679134)" style="">
    <title>hullg</title>
    <path style="stroke: rgb(0, 0, 0); fill: rgb(220, 220, 220);" d="M 40 120 L 109.241 125.823 L 261.32 165.191 L 240 220 L 80 220 L 40 120 Z M 109.152 125.753 L 80.072 220.106 L 109.152 125.753 Z">
      <title>hull</title>
    </path>
    <path d="M 112.924 174.044 L 14.945 174.17 L 6.275 166.855 L 112.924 174.044 Z" style="stroke: rgb(0, 0, 0); fill: rgb(220, 220, 220);" transform="matrix(0.440073, 0.897962, -0.897962, 0.440073, 186.485116, 41.956467)"/>
  </g>
  <g style="" transform="matrix(2.195025, 0, 0, 2.179525, -42.399616, 61.679134)">
    <title>sea</title>
    <rect x="34.257" y="219.132" width="233.695" height="27.858" style="fill: rgb(198, 208, 231);"/>
    <path style="stroke: rgb(0, 0, 0); fill: rgb(198, 208, 231);" d="M 34.283 219.693 C 34.283 219.693 50.886 205.778 50.341 205.734 C 49.795 205.69 39.958 215.365 51.279 220.027" transform="matrix(1, -0.000246, 0.000246, 1, -0.052367, 0.010531)"/>
    <path style="stroke: rgb(0, 0, 0); fill: rgb(198, 208, 231);" d="M 50.891 219.689 C 50.891 219.689 67.494 205.774 66.949 205.73 C 66.403 205.685 56.566 215.361 67.888 220.023" transform="matrix(1, -0.000246, 0.000246, 1, -0.052366, 0.014616)"/>
    <path style="stroke: rgb(0, 0, 0); fill: rgb(198, 208, 231);" d="M 67.471 219.684 C 67.471 219.684 84.074 205.769 83.529 205.725 C 82.983 205.681 73.146 215.356 84.467 220.018" transform="matrix(1, -0.000246, 0.000246, 1, -0.052364, 0.018695)"/>
    <path style="stroke: rgb(0, 0, 0); fill: rgb(198, 208, 231);" d="M 84.428 219.68 C 84.428 219.68 101.031 205.765 100.486 205.721 C 99.94 205.677 90.103 215.352 101.424 220.014" transform="matrix(1, -0.000246, 0.000246, 1, -0.052363, 0.022866)"/>
    <path style="stroke: rgb(0, 0, 0); fill: rgb(198, 208, 231);" d="M 100.878 219.676 C 100.878 219.676 117.481 205.761 116.936 205.717 C 116.39 205.673 106.553 215.348 117.874 220.01" transform="matrix(1, -0.000246, 0.000246, 1, -0.052361, 0.026913)"/>
    <path style="stroke: rgb(0, 0, 0); fill: rgb(198, 208, 231);" d="M 117.486 219.672 C 117.486 219.672 134.089 205.757 133.544 205.713 C 132.998 205.669 123.161 215.344 134.482 220.006" transform="matrix(1, -0.000246, 0.000246, 1, -0.05236, 0.030999)"/>
    <path style="stroke: rgb(0, 0, 0); fill: rgb(198, 208, 231);" d="M 134.066 219.668 C 134.066 219.668 150.669 205.753 150.124 205.709 C 149.578 205.665 139.741 215.34 151.062 220.002" transform="matrix(1, -0.000246, 0.000246, 1, -0.052358, 0.035077)"/>
    <path style="stroke: rgb(0, 0, 0); fill: rgb(198, 208, 231);" d="M 151.023 219.664 C 151.023 219.664 167.626 205.749 167.081 205.705 C 166.535 205.661 156.698 215.336 168.019 219.998" transform="matrix(1, -0.000246, 0.000246, 1, -0.052357, 0.039249)"/>
    <path style="stroke: rgb(0, 0, 0); fill: rgb(198, 208, 231);" d="M 167.696 219.66 C 167.696 219.66 184.299 205.745 183.754 205.701 C 183.208 205.657 173.371 215.332 184.692 219.994" transform="matrix(1, -0.000246, 0.000246, 1, -0.052355, 0.04335)"/>
    <path style="stroke: rgb(0, 0, 0); fill: rgb(198, 208, 231);" d="M 184.304 219.656 C 184.304 219.656 200.907 205.741 200.362 205.697 C 199.816 205.653 189.979 215.328 201.3 219.99" transform="matrix(1, -0.000246, 0.000246, 1, -0.052354, 0.047436)"/>
    <path style="stroke: rgb(0, 0, 0); fill: rgb(198, 208, 231);" d="M 200.884 219.652 C 200.884 219.652 217.487 205.737 216.942 205.693 C 216.396 205.649 206.559 215.324 217.88 219.986" transform="matrix(1, -0.000246, 0.000246, 1, -0.052352, 0.051514)"/>
    <path style="stroke: rgb(0, 0, 0); fill: rgb(198, 208, 231);" d="M 217.841 219.647 C 217.841 219.647 234.444 205.732 233.899 205.688 C 233.353 205.644 223.516 215.319 234.837 219.981" transform="matrix(1, -0.000246, 0.000246, 1, -0.05235, 0.055686)"/>
    <path style="stroke: rgb(0, 0, 0); fill: rgb(198, 208, 231);" d="M 234.291 219.643 C 234.291 219.643 250.894 205.728 250.349 205.684 C 249.803 205.64 239.966 215.315 251.287 219.977" transform="matrix(1, -0.000246, 0.000246, 1, -0.052349, 0.059733)"/>
    <path style="stroke: rgb(0, 0, 0); fill: rgb(198, 208, 231);" d="M 250.899 219.639 C 250.899 219.639 267.502 205.724 266.957 205.68 C 266.411 205.636 256.574 215.311 267.895 219.973" transform="matrix(1, -0.000246, 0.000246, 1, -0.052347, 0.063818)"/>
  </g>
  <path d="M 72.103 198.923 L 40.181 198.923 L 67.688 101.077 L 97.089 101.077 C 102.611 101.077 107.134 101.702 110.655 102.952 C 114.178 104.202 116.843 105.973 118.649 108.266 C 120.457 110.549 121.461 113.324 121.661 116.59 C 121.861 119.857 121.393 123.503 120.261 127.528 C 119.645 129.723 118.793 131.838 117.706 133.875 C 116.619 135.911 115.277 137.826 113.681 139.616 C 112.076 141.407 110.21 143.03 108.08 144.487 C 105.958 145.944 103.538 147.207 100.817 148.28 C 105.639 149.855 108.818 152.399 110.353 155.911 C 111.889 159.424 111.882 163.937 110.333 169.447 C 109.163 173.609 107.42 177.48 105.103 181.063 C 102.777 184.645 99.972 187.764 96.685 190.421 C 93.388 193.088 89.663 195.173 85.511 196.679 C 81.362 198.174 76.892 198.923 72.103 198.923 Z M 83.336 157.417 L 70.389 157.417 L 63.535 181.801 L 76.59 181.801 C 79.041 181.801 81.15 181.417 82.917 180.649 C 84.682 179.892 86.175 178.908 87.4 177.697 C 88.616 176.487 89.603 175.125 90.358 173.609 C 91.115 172.084 91.714 170.539 92.155 168.974 C 92.659 167.184 92.919 165.569 92.936 164.133 C 92.952 162.706 92.633 161.495 91.981 160.502 C 91.325 159.517 90.304 158.76 88.919 158.229 C 87.536 157.687 85.675 157.417 83.336 157.417 Z M 81.453 118.066 L 74.656 142.244 L 84.312 142.244 C 86.352 142.244 88.248 142.062 89.998 141.697 C 91.746 141.343 93.319 140.719 94.719 139.823 C 96.129 138.927 97.355 137.697 98.398 136.133 C 99.441 134.568 100.296 132.595 100.966 130.214 C 101.619 127.892 101.925 125.959 101.885 124.413 C 101.839 122.868 101.456 121.624 100.741 120.679 C 100.016 119.745 98.95 119.075 97.544 118.672 C 96.138 118.269 94.395 118.066 92.313 118.066 L 81.453 118.066 Z M 213.822 149.963 C 211.833 157.038 208.985 163.621 205.28 169.712 C 201.573 175.804 197.277 181.097 192.389 185.594 C 187.508 190.092 182.158 193.613 176.338 196.162 C 170.523 198.72 164.506 200 158.285 200 C 152.072 200 146.767 198.72 142.367 196.162 C 137.965 193.613 134.575 190.092 132.198 185.594 C 129.823 181.097 128.493 175.804 128.214 169.712 C 127.931 163.621 128.787 157.038 130.776 149.963 C 132.764 142.889 135.611 136.306 139.317 130.214 C 143.02 124.133 147.322 118.853 152.22 114.376 C 157.12 109.9 162.489 106.381 168.327 103.823 C 174.163 101.274 180.187 100 186.4 100 C 192.62 100 197.916 101.284 202.289 103.852 C 206.668 106.431 210.036 109.959 212.394 114.435 C 214.759 118.912 216.083 124.196 216.363 130.288 C 216.644 136.379 215.797 142.937 213.822 149.963 Z M 194.848 149.963 C 196.206 145.132 196.915 140.778 196.976 136.9 C 197.043 133.033 196.493 129.756 195.329 127.07 C 194.162 124.384 192.391 122.322 190.015 120.886 C 187.638 119.449 184.677 118.731 181.133 118.731 C 177.548 118.731 174.157 119.449 170.956 120.886 C 167.756 122.322 164.817 124.384 162.141 127.07 C 159.464 129.756 157.073 133.033 154.966 136.9 C 152.855 140.778 151.12 145.132 149.762 149.963 C 148.39 154.844 147.669 159.222 147.6 163.1 C 147.533 166.967 148.082 170.244 149.248 172.93 C 150.413 175.616 152.197 177.663 154.598 179.07 C 156.997 180.487 159.988 181.196 163.572 181.196 C 167.117 181.196 170.478 180.487 173.657 179.07 C 176.833 177.663 179.759 175.616 182.435 172.93 C 185.111 170.244 187.503 166.967 189.611 163.1 C 191.729 159.222 193.474 154.844 194.848 149.963 Z M 285.642 101.077 L 289.068 198.923 L 274.698 198.923 C 273.083 198.923 271.885 198.465 271.106 197.55 C 270.321 196.624 269.928 195.449 269.927 194.022 L 270.011 176.959 L 239.621 176.959 L 230.11 194.022 C 229.389 195.272 228.356 196.403 227.01 197.417 C 225.667 198.421 224.228 198.923 222.694 198.923 L 208.216 198.923 L 266.656 101.077 L 285.642 101.077 Z M 263.092 134.849 L 248.24 161.52 L 270.071 161.52 L 270.253 134.716 C 270.257 133.014 270.262 131.011 270.267 128.708 C 270.279 126.406 270.35 123.911 270.479 121.225 C 269.133 123.951 267.82 126.48 266.537 128.812 C 265.266 131.134 264.117 133.147 263.092 134.849 Z M 317.821 101.077 L 381.338 101.077 L 376.281 119.07 L 353.786 119.07 L 331.337 198.923 L 312.796 198.923 L 335.245 119.07 L 312.763 119.07 L 317.821 101.077 Z M 444.581 110.406 L 437.013 120.945 C 436.154 122.027 435.348 122.834 434.597 123.365 C 433.841 123.907 432.99 124.177 432.041 124.177 C 431.198 124.177 430.385 123.852 429.603 123.203 C 428.813 122.554 427.921 121.826 426.926 121.018 C 425.923 120.211 424.73 119.483 423.345 118.834 C 421.952 118.185 420.253 117.86 418.243 117.86 C 414.763 117.86 411.922 118.765 409.716 120.576 C 407.501 122.396 405.958 124.852 405.089 127.941 C 404.537 129.908 404.593 131.542 405.256 132.841 C 405.911 134.14 406.939 135.258 408.339 136.192 C 409.738 137.137 411.396 137.997 413.316 138.775 C 415.231 139.562 417.171 140.438 419.135 141.402 C 421.097 142.366 422.965 143.498 424.737 144.797 C 426.509 146.096 427.947 147.749 429.045 149.756 C 430.141 151.774 430.794 154.229 431.001 157.122 C 431.219 160.004 430.755 163.483 429.61 167.557 C 428.338 172.084 426.509 176.314 424.125 180.251 C 421.729 184.196 418.906 187.635 415.655 190.568 C 412.395 193.501 408.75 195.804 404.72 197.476 C 400.679 199.159 396.392 200 391.859 200 C 389.367 200 386.925 199.686 384.531 199.055 C 382.128 198.425 379.877 197.539 377.779 196.399 C 375.688 195.258 373.803 193.904 372.121 192.339 C 370.439 190.775 369.086 189.029 368.061 187.1 L 376.529 176.487 C 377.158 175.68 377.908 175.03 378.777 174.539 C 379.647 174.047 380.5 173.801 381.335 173.801 C 382.436 173.801 383.425 174.229 384.301 175.085 C 385.173 175.931 386.17 176.871 387.294 177.904 C 388.414 178.927 389.765 179.867 391.347 180.723 C 392.943 181.569 394.981 181.993 397.464 181.993 C 400.832 181.993 403.701 181.088 406.075 179.277 C 408.45 177.466 410.191 174.587 411.3 170.642 C 411.942 168.359 411.949 166.505 411.322 165.077 C 410.704 163.641 409.695 162.455 408.294 161.52 C 406.898 160.576 405.237 159.745 403.319 159.026 C 401.395 158.317 399.445 157.525 397.464 156.649 C 395.476 155.774 393.602 154.697 391.839 153.417 C 390.075 152.148 388.655 150.469 387.577 148.384 C 386.497 146.307 385.886 143.709 385.741 140.59 C 385.595 137.48 386.164 133.643 387.447 129.077 C 388.479 125.407 390.089 121.826 392.276 118.332 C 394.464 114.838 397.11 111.73 400.215 109.004 C 403.323 106.269 406.806 104.084 410.664 102.45 C 414.523 100.816 418.647 100 423.035 100 C 425.486 100 427.807 100.236 429.995 100.708 C 432.19 101.17 434.2 101.864 436.029 102.79 C 437.855 103.705 439.49 104.801 440.938 106.081 C 442.389 107.351 443.603 108.793 444.581 110.406 Z" style="fill: rgb(51, 51, 51); white-space: pre;"/>
</svg>